<svg width="339" height="360" viewBox="0 0 339 360" fill="none" xmlns="http://www.w3.org/2000/svg">
<circle cx="165" cy="165" r="165" fill="#F2F2FC"/>
<circle cx="330" cy="85.9346" r="9" fill="#B2AFEB"/>
<g clip-path="url(#clip0_6684_9472)">
<rect x="71.3906" y="38.54" width="166.489" height="126.46" rx="6.27006" fill="white"/>
<path d="M77.9375 144.764H87.5457" stroke="#99DBEA" stroke-width="3.13503" stroke-linecap="round"/>
<path d="M223.859 144.764H233.468" stroke="#99DBEA" stroke-width="3.13503" stroke-linecap="round"/>
<path d="M231.72 134.737C232.273 134.737 232.721 134.289 232.714 133.737C232.571 122.663 230.053 111.748 225.33 101.731C225.094 101.231 224.495 101.025 223.999 101.267L219.985 103.223C219.488 103.465 219.283 104.064 219.518 104.563C223.811 113.698 226.106 123.644 226.248 133.737C226.256 134.289 226.703 134.737 227.255 134.737H231.72Z" fill="#008A00"/>
<path d="M222.97 99.2341C223.459 98.9774 223.648 98.3726 223.385 97.8869C219.27 90.2887 213.913 83.433 207.534 77.6044C207.126 77.2318 206.493 77.269 206.126 77.6814L203.157 81.0163C202.79 81.4288 202.827 82.0604 203.234 82.4334C209.033 87.7442 213.908 93.9821 217.66 100.892C217.923 101.377 218.527 101.566 219.016 101.309L222.97 99.2341Z" fill="#8CCF54"/>
<path d="M206.747 73.4338C207.125 73.0204 207.091 72.3771 206.666 72.0127C200.467 66.7046 192.421 61.3756 184.867 58.3182C184.352 58.11 183.772 58.3733 183.578 58.8931L179.184 70.6452C178.992 71.1601 179.252 71.7334 179.763 71.9362C186.458 74.5942 191.647 77.8162 197.117 82.5089C197.53 82.8633 198.151 82.8304 198.518 82.4288L206.747 73.4338Z" fill="#FCD800"/>
<path d="M180.258 62.5253C180.439 62.0033 180.162 61.4333 179.637 61.2599C171.907 58.7027 163.822 57.3813 155.68 57.3445C155.127 57.342 154.683 57.7942 154.688 58.3464L154.726 62.8113C154.73 63.3636 155.182 63.8068 155.734 63.81C163.14 63.8522 170.494 65.0539 177.528 67.3716C178.052 67.5445 178.621 67.2681 178.801 66.746L180.258 62.5253Z" fill="#FF871F"/>
<path d="M78.9297 134.74C78.3774 134.74 77.929 134.292 77.9361 133.74C78.1914 113.973 86.0027 95.038 99.7885 80.8347C113.574 66.6315 132.268 58.2589 152.018 57.4142C152.57 57.3906 153.031 57.8254 153.048 58.3775L153.181 62.8406C153.197 63.3926 152.763 63.8527 152.211 63.877C134.141 64.6711 117.042 72.3407 104.428 85.3375C91.8129 98.3343 84.6566 115.654 84.4018 133.74C84.394 134.292 83.947 134.74 83.3947 134.74H78.9297Z" fill="#E15825"/>
<path d="M171.251 133.964L138.461 133.964C138.461 128.153 142.773 117.782 155.171 117.782C166.221 117.782 171.79 128.153 171.251 133.964Z" fill="#CCDBE3"/>
<path d="M176.08 77.2722L152.263 126.109C151.515 127.646 152.219 129.486 153.813 130.161C155.406 130.837 157.251 130.077 157.876 128.488L178.411 78.2602C178.657 77.6352 178.356 76.9308 177.729 76.6652C177.102 76.3995 176.374 76.6676 176.08 77.2722Z" fill="#2C2C2C"/>
<mask id="mask0_6684_9472" style="mask-type:alpha" maskUnits="userSpaceOnUse" x="14" y="0" width="331" height="330">
<circle cx="179.453" cy="165" r="165" fill="#FFF9D9"/>
</mask>
<g mask="url(#mask0_6684_9472)">
<path fill-rule="evenodd" clip-rule="evenodd" d="M231.14 117C234.195 113.415 236.262 109.021 235.917 104.098C234.921 89.9119 215.174 93.0326 211.333 100.192C207.492 107.352 207.948 125.513 212.913 126.793C214.892 127.303 219.11 126.053 223.403 123.466L220.708 142.527H236.617L231.14 117Z" fill="#D6A97F"/>
<path fill-rule="evenodd" clip-rule="evenodd" d="M217.618 92.3924C219.792 91.7295 222.948 91.5047 224.275 91.6568C223.52 89.8476 223.22 87.8318 223.465 85.8692C223.702 83.9621 224.554 82.3383 225.342 80.6367C225.706 79.8524 226.117 79.0723 226.731 78.4724C227.356 77.8612 228.148 77.4578 228.978 77.2653C229.827 77.0683 230.715 77.0847 231.566 77.2635C231.942 77.3426 232.28 77.5146 232.649 77.6103C233.027 77.7083 233.21 77.4717 233.485 77.234C234.146 76.6612 235.115 76.3784 235.951 76.2772C236.89 76.1637 237.864 76.3052 238.759 76.6137C239.63 76.914 240.466 77.4017 241.096 78.1121C241.377 78.4283 241.631 78.7883 241.797 79.1857C241.864 79.3487 241.876 79.4453 242.038 79.5051C242.189 79.5604 242.365 79.562 242.52 79.6146C244.022 80.1233 245.306 81.2838 246.006 82.7739C246.414 83.6431 246.607 85.1736 246.554 86.8891C246.501 88.6045 244.952 93.0805 243.503 94.7132C242.21 96.1705 240.309 97.1321 238.475 97.5531C239.693 98.9448 240.503 100.684 241.102 102.453C241.753 104.374 242.156 106.37 242.305 108.404C242.446 110.337 242.46 112.38 242.007 114.272C241.583 116.04 240.676 117.491 239.163 118.412C238.47 118.833 237.724 119.15 236.974 119.44C236.235 119.725 235.494 120.002 234.72 120.162C233.254 120.465 231.566 120.413 230.437 119.247C230.03 118.826 229.583 118.298 229.286 117.784C229.179 117.6 229.115 117.479 229.245 117.298C229.4 117.082 229.651 116.916 229.851 116.747C230.989 115.782 231.693 114.495 231.87 112.965C232.051 111.412 231.634 109.408 230.124 108.73C228.261 107.894 226.208 108.854 224.552 109.749C223.848 107.265 222.403 105.028 220.137 103.888C217.63 102.627 214.754 102.48 212.177 101.398C211.506 101.116 210.822 100.796 210.328 100.222C210.122 99.9821 209.879 99.6707 209.797 99.3532C209.688 98.9362 209.957 98.5866 210.165 98.2615C211.267 96.5378 215.444 93.0553 217.618 92.3924Z" fill="#262626"/>
<path fill-rule="evenodd" clip-rule="evenodd" d="M239.82 202.21L217.533 280.42L201.272 338.066L189.412 338.066L206.692 202.21L239.82 202.21Z" fill="#004364"/>
<path fill-rule="evenodd" clip-rule="evenodd" d="M245.789 202.21C246.305 242.521 248.063 264.507 248.604 268.169C249.145 271.832 257.329 295.131 273.156 338.066L260.87 338.066C240.721 296.877 229.474 273.578 227.127 268.169C224.781 262.761 217.54 240.774 206.633 202.21L245.789 202.21Z" fill="#005F8D"/>
<path fill-rule="evenodd" clip-rule="evenodd" d="M269.578 181.913L254.648 181.969C271.02 218.811 279.556 238.102 280.257 239.839C281.835 243.749 278.496 249.704 277.069 252.904C281.719 254.985 281.223 247.279 287.089 250.008C292.444 252.499 296.517 257.013 302.703 253.196C303.463 252.726 304.297 250.96 302.283 249.579C297.266 246.139 290.037 240.118 289.06 238.137C287.728 235.434 281.234 216.693 269.578 181.913Z" fill="#D6A97F"/>
<path d="M161.226 187.968L188.339 186.212L186.005 198.993L162.874 194.851C153.832 197.634 149.325 198.32 149.355 196.91C149.4 194.794 152.249 194.726 152.508 193.304C152.768 191.881 149.215 189.764 145.759 187.899C142.303 186.035 144.195 185.179 145.45 184.962C150.093 185.101 155.352 186.103 161.226 187.968Z" fill="#D6A97F"/>
<path fill-rule="evenodd" clip-rule="evenodd" d="M228.685 134.562L216.995 135.341C214.116 161.388 200.523 182.388 169.079 184.984L180.618 214.408C201.389 208.639 213.22 214.516 226.154 161.344C227.68 152.135 228.886 142.552 228.685 134.562Z" fill="#FFC700"/>
<path fill-rule="evenodd" clip-rule="evenodd" d="M234.453 131.162L216.741 135.219C216.741 165.683 207.036 185.119 202.059 207.517L249.895 207.517C250.569 215.257 250.982 223.212 251.198 231.382L287.016 231.382C278.899 188.197 261.768 154.787 235.622 131.151L234.462 131.151L234.453 131.162Z" fill="#FCD800"/>
<path fill-rule="evenodd" clip-rule="evenodd" d="M242.351 164.056C243.584 183.039 242.859 197.526 240.176 207.517L249.898 207.517C248.564 192.185 246.208 177.698 242.351 164.056Z" fill="black" fill-opacity="0.1"/>
</g>
<circle cx="77.929" cy="44.6146" r="32.3197" fill="#E5E4F8"/>
<rect x="60.8594" y="34.7773" width="36.3165" height="19.6754" fill="#99DBEA"/>
<path d="M75.0616 43.7883C75.0616 43.6939 75.1382 43.6173 75.2326 43.6173H81.3909C81.4853 43.6173 81.5619 43.6939 81.5619 43.7883V55.289H75.0616V43.7883Z" fill="#1B3B4C" stroke="#00A6CA" stroke-width="0.342003"/>
<rect x="59.6875" y="36.1016" width="3.79827" height="18.3501" fill="#00A6CA"/>
<rect x="83.8203" y="36.1016" width="3.79827" height="18.6289" fill="#00A6CA"/>
<rect x="68.0625" y="36.1016" width="3.79827" height="18.6289" fill="#00A6CA"/>
<rect x="92.1953" y="36.1016" width="3.79827" height="18.6289" fill="#00A6CA"/>
<rect x="57.8594" y="54.4521" width="40.902" height="4.55989" rx="0.342003" fill="#005F8D"/>
<path d="M99.9215 35.1095H55.7018C54.935 35.1095 54.676 34.0855 55.3506 33.7209L77.5684 21.7132C77.7885 21.5943 78.0539 21.5948 78.2735 21.7147L100.275 33.7224C100.947 34.089 100.687 35.1095 99.9215 35.1095Z" fill="#00A6CA"/>
<path d="M57.4766 35.1123H98.3785V36.4782C98.3785 36.6671 98.2254 36.8202 98.0365 36.8202H57.8186C57.6297 36.8202 57.4766 36.6671 57.4766 36.4782V35.1123Z" fill="#00A6CA"/>
<path fill-rule="evenodd" clip-rule="evenodd" d="M54.7812 57.9943C54.7812 57.8055 54.9344 57.6523 55.1233 57.6523H101.448C101.637 57.6523 101.79 57.8055 101.79 57.9943V59.1572C101.79 59.346 101.637 59.4992 101.448 59.4992H55.1233C54.9344 59.4992 54.7812 59.346 54.7812 59.1572V57.9943Z" fill="#00A6CA"/>
<rect opacity="0.2" x="59.6875" y="36.8203" width="3.80113" height="1.0291" fill="#004364"/>
<rect opacity="0.2" x="68.0625" y="36.8203" width="3.80113" height="1.0291" fill="#004364"/>
<rect opacity="0.2" x="83.8203" y="36.8203" width="3.80113" height="1.0291" fill="#004364"/>
<rect opacity="0.2" x="92.1953" y="36.8203" width="3.80113" height="1.0291" fill="#004364"/>
<path d="M54.9531 34.2598H100.638V34.4265C100.638 34.8042 100.332 35.1105 99.954 35.1105H55.6371C55.2594 35.1105 54.9531 34.8042 54.9531 34.4265V34.2598Z" fill="#005F8D"/>
</g>
<circle cx="54.7764" cy="283.563" r="24.2451" fill="#E5E4F8"/>
<defs>
<clipPath id="clip0_6684_9472">
<rect width="277.086" height="356.253" fill="white" transform="translate(26.4531 2)"/>
</clipPath>
</defs>
</svg>
