<svg width="344" height="360" viewBox="0 0 344 360" fill="none" xmlns="http://www.w3.org/2000/svg">
<circle cx="179" cy="165" r="165" fill="#FFF9D9"/>
<circle cx="21.5" cy="108.5" r="21.5" fill="#FEF3B3"/>
<circle cx="312" cy="285" r="9" fill="#FDE866"/>
<path d="M297.362 121.693C299.374 121.693 301.013 120.062 300.929 118.052C300.478 107.275 298.033 96.6755 293.716 86.7912C292.911 84.9476 290.723 84.1988 288.915 85.0802C287.107 85.9615 286.363 88.139 287.161 89.9857C291.001 98.8716 293.196 108.382 293.637 118.052C293.728 120.061 295.35 121.693 297.362 121.693Z" fill="#1D653B"/>
<path d="M287.777 82.852C289.558 81.917 290.251 79.7107 289.243 77.9701C285.207 71.005 280.227 64.6321 274.443 59.033C272.998 57.6337 270.69 57.7727 269.352 59.2752C268.014 60.7777 268.154 63.0743 269.594 64.4791C274.729 69.4883 279.166 75.1662 282.786 81.3594C283.801 83.0962 285.996 83.787 287.777 82.852Z" fill="#008A00"/>
<path opacity="0.8" d="M277.454 120.899H151.633C146.11 120.899 141.591 116.401 142.485 110.951C146.722 85.1371 167.268 50.335 215.49 50.335C258.951 50.335 283.232 85.9203 286.375 111.815C286.998 116.941 282.618 120.899 277.454 120.899Z" fill="#00A6CA"/>
<path d="M270.804 53.6027C271.73 52.5911 271.646 51.0151 270.592 50.138C264.103 44.7361 256.019 39.4173 248.284 36.0878C247.037 35.5509 245.616 36.1964 245.141 37.4682L241.114 48.238C240.643 49.4978 241.279 50.8975 242.521 51.4146C249.092 54.1511 254.401 57.4376 259.875 61.9999C260.898 62.8526 262.415 62.7729 263.314 61.7902L270.804 53.6027Z" fill="#008A00"/>
<path d="M241.057 42.6954C241.713 40.7938 240.706 38.7123 238.779 38.1358C231.603 35.9898 224.182 34.7769 216.697 34.5271C214.686 34.4599 213.068 36.1124 213.085 38.124C213.102 40.1357 214.747 41.7441 216.758 41.8188C223.413 42.0664 230.011 43.1447 236.399 45.0288C238.329 45.5979 240.401 44.597 241.057 42.6954Z" fill="#FF871F"/>
<path d="M130.213 121.694C128.201 121.694 126.562 120.062 126.646 118.052C127.538 96.6914 136.253 76.3522 151.202 60.9507C166.151 45.5492 186.221 36.2319 207.545 34.7032C209.551 34.5593 211.232 36.1487 211.292 38.1595C211.352 40.1703 209.769 41.8404 207.763 41.9919C188.333 43.4592 170.059 51.9827 156.429 66.0247C142.8 80.0666 134.825 98.5871 133.938 118.052C133.847 120.062 132.225 121.694 130.213 121.694Z" fill="#E15825"/>
<path d="M248.776 58.703C250.069 58.1832 251.413 59.3325 251.1 60.6907L249.526 67.5241C249.243 68.7521 247.782 69.2721 246.787 68.4989L241.527 64.412C240.476 63.5952 240.707 61.946 241.943 61.4495L248.776 58.703Z" fill="#004364"/>
<path d="M214.228 94.8369C199.833 94.8369 188.164 106.506 188.164 120.901H240.292C240.292 106.506 228.623 94.8369 214.228 94.8369Z" fill="#FEF3B3"/>
<circle cx="213.886" cy="118.14" r="17.7684" fill="#005F8D"/>
<path d="M207.961 118.798L212.349 122.747L221.123 114.85" stroke="white" stroke-width="4" stroke-linecap="round" stroke-linejoin="round"/>
<mask id="mask0_6631_9779" style="mask-type:alpha" maskUnits="userSpaceOnUse" x="14" y="0" width="330" height="330">
<circle cx="179" cy="165" r="165" fill="#E6F6FA"/>
</mask>
<g mask="url(#mask0_6631_9779)">
<path d="M198.552 141.859L178.97 165.415L192.109 171.674L203.7 147.878C212.224 141.464 215.836 137.808 214.538 136.909C212.589 135.562 210.637 138.113 209.175 137.416C207.713 136.72 208.15 132.093 208.752 127.72C209.355 123.346 207.323 124.509 206.294 125.51C203.339 129.833 200.758 135.283 198.552 141.859Z" fill="#B28B67"/>
<path d="M134.481 133.507L126.23 135.74C135.376 167.71 150.081 229.118 198.695 185.874L197.418 143.109C196.945 143.745 196.474 144.373 196.005 144.994C181.025 161.452 172.636 171.153 169.339 169.733C151.525 162.061 150.382 140.308 134.481 133.507Z" fill="#47447C"/>
<path fill-rule="evenodd" clip-rule="evenodd" d="M115.555 214.248L143.909 314.672L157.245 390.072H170.631L155.452 214.248H115.555Z" fill="#997659"/>
<path fill-rule="evenodd" clip-rule="evenodd" d="M102.815 214.248C104.794 266.418 104.014 294.873 103.571 299.612C103.128 304.352 100.614 336.097 83.4844 391.663H97.4066C120.092 338.357 128.012 306.612 130.614 299.612C133.215 292.613 140.9 264.158 152.119 214.248H102.815Z" fill="#B28B67"/>
<path fill-rule="evenodd" clip-rule="evenodd" d="M114.953 214.248C122.328 248.804 135.085 303.965 153.222 379.729H172.8C174.246 301.964 166.18 250.782 155.527 214.248H114.953Z" fill="#004364"/>
<path fill-rule="evenodd" clip-rule="evenodd" d="M102.725 214.248C104.662 266.418 99.6407 317.815 84.0859 380.542H104.975C127.702 328.031 143.991 276.887 155.124 214.248H102.725Z" fill="#005F8D"/>
<path fill-rule="evenodd" clip-rule="evenodd" d="M152.062 97.1575C154.73 106.99 158.207 126.705 154.659 130.172H132.212C132.209 130.132 132.214 130.211 132.212 130.172C123.892 129.251 117.414 124.463 117.414 115.897V99.6421C117.414 90.4509 124.865 83 134.056 83H135.604C143.951 83 150.863 89.1448 152.062 97.1575Z" fill="black"/>
<path fill-rule="evenodd" clip-rule="evenodd" d="M126.138 112.791C122.571 108.604 120.157 103.473 120.56 97.7242C121.722 81.1592 144.782 84.8033 149.267 93.1639C153.752 101.524 153.219 122.732 147.422 124.226C145.111 124.822 140.186 123.362 135.173 120.341L138.319 142.599H119.742L126.138 112.791Z" fill="#B28B67"/>
<path fill-rule="evenodd" clip-rule="evenodd" d="M131.164 109.997C132.02 119.191 130.741 127.82 128.19 130.312L106.307 130.313C105.056 108.582 117.515 118.868 117.515 98.4081C118.269 97.6717 118.981 96.943 119.686 96.3145L119.661 95.7127C123.548 87.7552 128.479 83.7764 134.455 83.7764C143.418 83.7764 146.247 87.9472 148.656 91.4883C146.855 97.6691 139.865 98.5856 133.653 102.438C132.921 101.843 131.987 101.487 130.97 101.487C128.619 101.487 126.713 103.393 126.713 105.744C126.713 108.095 128.619 110.001 130.97 110.001C131.035 110.001 131.1 110 131.164 109.997Z" fill="black"/>
<path fill-rule="evenodd" clip-rule="evenodd" d="M82.1842 186.217L98.532 186.278C80.6062 226.618 71.2594 247.739 70.4916 249.642C68.7641 253.923 72.4197 260.443 73.983 263.947C68.8914 266.226 69.4339 257.788 63.011 260.776C57.1484 263.504 52.6888 268.446 45.9155 264.266C45.0828 263.752 44.1702 261.818 46.375 260.306C51.8681 256.539 59.7839 249.947 60.8534 247.777C62.312 244.819 69.4222 224.298 82.1842 186.217Z" fill="#997659"/>
<path fill-rule="evenodd" clip-rule="evenodd" d="M120.654 130.65L140.047 135.091C140.047 168.447 154.985 200.014 160.435 224.538H102.993C102.255 233.013 102.555 231.437 102.319 240.383H63.1016C71.9885 193.098 90.7457 156.517 119.373 130.638H120.643L120.654 130.65Z" fill="#B2AFEB"/>
<path fill-rule="evenodd" clip-rule="evenodd" d="M111.045 176.975C109.695 197.76 110.489 213.622 113.426 224.561H102.781C104.836 194.464 106.822 191.912 111.045 176.975Z" fill="#47447C"/>
</g>
<circle cx="284.431" cy="30.1418" r="13.1418" fill="#FCD800"/>
<path d="M284.168 35.653L281.461 30.8058V29.6634H282.363C282.724 29.6634 283.04 29.6119 283.311 29.509C283.592 29.3958 283.822 29.2363 284.003 29.0305C284.193 28.8246 284.323 28.5776 284.394 28.2895H281.461V27.1471H284.379C284.318 26.8795 284.213 26.6428 284.063 26.437C283.922 26.2312 283.732 26.0717 283.491 25.9585C283.261 25.835 282.98 25.7732 282.649 25.7732H281.461V24.6309H288.244V25.7732H285.883C286.053 25.9688 286.193 26.1797 286.304 26.4061C286.424 26.6326 286.504 26.8795 286.544 27.1471H288.244V28.2895H286.574C286.474 29.0511 286.188 29.648 285.717 30.0802C285.246 30.5022 284.639 30.7903 283.897 30.9447L286.845 35.653H284.168Z" fill="#262626"/>
</svg>
