<svg width="330" height="360" viewBox="0 0 330 360" fill="none" xmlns="http://www.w3.org/2000/svg">
<circle cx="165" cy="165" r="165" fill="#E0F6E9"/>
<circle cx="52.5" cy="283.5" r="21.5" fill="#C1EDD3"/>
<circle cx="321" cy="78" r="9" fill="#67D995"/>
<rect x="11.3484" y="21.7488" width="149.842" height="102.717" rx="5.22613" fill="#F7F9FA" stroke="#F2F2F2" stroke-width="0.696818"/>
<rect x="29.3281" y="37.1074" width="37.962" height="6.54517" rx="2.78727" fill="#5F5BA9"/>
<rect x="72.5234" y="37.1074" width="37.962" height="6.54517" rx="2.78727" fill="#5F5BA9"/>
<path d="M29.3281 106.488H143.214" stroke="#F2F2FC" stroke-width="0.696818"/>
<path d="M29.3281 90.7793H143.214" stroke="#F2F2FC" stroke-width="0.696818"/>
<path d="M29.3281 75.0703H143.214" stroke="#F2F2FC" stroke-width="0.696818"/>
<path d="M29.3281 59.3613H143.214" stroke="#F2F2FC" stroke-width="0.696818"/>
<path d="M33.2578 91.4329L67.2927 75.07L109.659 83.8649L140.599 58.707" stroke="#B2AFEB" stroke-width="1.39364"/>
<circle cx="140.591" cy="59.3627" r="3.9271" fill="#5F5BA9"/>
<circle cx="109.786" cy="82.9251" r="3.9271" fill="#5F5BA9"/>
<circle cx="67.2865" cy="75.0697" r="3.9271" fill="#5F5BA9"/>
<circle cx="33.2552" cy="90.7787" r="3.9271" fill="#5F5BA9"/>
<circle cx="158.772" cy="21.374" r="4.374" fill="#FF871F"/>
<mask id="mask0_6631_9394" style="mask-type:alpha" maskUnits="userSpaceOnUse" x="0" y="0" width="330" height="330">
<circle cx="165" cy="165" r="165" fill="#CCEDFA"/>
</mask>
<g mask="url(#mask0_6631_9394)">
<path fill-rule="evenodd" clip-rule="evenodd" d="M205.031 211.42L174.659 288.294L154.287 353.285H146.243L177.386 211.42L205.031 211.42Z" fill="#B28B67"/>
<path fill-rule="evenodd" clip-rule="evenodd" d="M211.154 211.42C211.477 238.434 216.194 274.804 216.947 276.488C217.45 277.611 234.793 291.887 268.977 319.316L263.436 325.245C223.102 301.728 202.002 288.401 200.136 285.264C197.336 280.559 188.221 237.264 180.904 211.42H211.154Z" fill="#B28B67"/>
<path fill-rule="evenodd" clip-rule="evenodd" d="M269.718 317.337C271.578 317.994 272.86 318.618 273.563 319.208C274.418 319.925 275.546 321.114 276.947 322.775C276.115 323.767 268.636 332.679 254.512 349.512C251.632 348.28 250.728 346.838 251.801 345.187C252.874 343.537 253.752 342.154 254.436 341.04L259.323 323.965C259.417 323.636 259.76 323.446 260.088 323.54C260.094 323.542 260.1 323.543 260.105 323.545L262.713 324.372C264.522 323.529 265.791 322.674 266.518 321.808C267.108 321.104 267.64 319.893 268.112 318.176C268.293 317.517 268.974 317.129 269.633 317.31C269.662 317.318 269.69 317.327 269.718 317.337Z" fill="#E4E4E4"/>
<path fill-rule="evenodd" clip-rule="evenodd" d="M184.615 346.591L146.369 342.44L174.713 211.42H208.969L184.615 346.591Z" fill="#004364"/>
<path fill-rule="evenodd" clip-rule="evenodd" d="M261.062 309.751L235.976 339.445C209.552 310.586 194.147 291.755 189.76 282.953C185.374 274.151 181.431 250.307 177.931 211.42H216.496C218.408 245.631 219.697 263.532 220.362 265.124C221.028 266.716 234.595 281.592 261.062 309.751Z" fill="#005F8D"/>
<path fill-rule="evenodd" clip-rule="evenodd" d="M228.104 171.293L219.906 170.345C228.351 204.305 232.847 222.089 233.395 223.7C234.627 227.322 231.875 236.436 232.887 237.211C236.316 236.893 234.736 233.662 235.526 231.94C240.252 234.467 235.575 244.211 241.373 241.064C243.652 237.638 243.77 234.777 243.418 231.783C241.999 227.433 241.617 224.424 240.832 222.579C239.761 220.063 232.379 203.146 228.104 171.293Z" fill="#B28B67"/>
<path d="M123.57 92.7483L145.275 104.09L137.511 112.757L121.627 98.7748C113.363 96.6703 109.571 95.0867 110.252 94.0239C111.274 92.4296 113.501 93.7096 114.364 92.7452C115.228 91.7808 113.48 88.5022 111.688 85.4619C109.895 82.4216 111.753 82.6529 112.82 83.0744C116.332 85.3528 119.915 88.5775 123.57 92.7483Z" fill="#B28B67"/>
<path fill-rule="evenodd" clip-rule="evenodd" d="M200.858 158.062L204.903 141.055C164.817 136.437 152.694 98.4301 137.507 94.4916C133.334 94.0195 131.641 97.1883 130.221 95.8319L126.012 103.354C127.519 104.356 125.328 107.156 127.711 112.153C130.093 117.149 154.332 162.649 200.858 158.062Z" fill="#E15825"/>
<path fill-rule="evenodd" clip-rule="evenodd" d="M195.285 122.251C198.978 119.355 201.868 115.474 202.506 110.597C204.345 96.5469 184.443 95.6812 179.273 101.912C174.103 108.143 170.949 125.969 175.544 128.202C177.376 129.093 181.743 128.708 186.447 127.032L182.8 145.733L195.575 148.265L195.285 122.251Z" fill="#B28B67"/>
<path fill-rule="evenodd" clip-rule="evenodd" d="M210.208 107.362C210.811 106.966 211.229 106.312 211.602 105.686C211.99 105.036 212.373 104.377 212.684 103.681C213.305 102.292 213.648 100.618 212.839 99.2764C212.19 98.2008 211.023 97.5405 209.887 97.218C209.13 97.0031 208.319 96.9506 207.533 97.0433C206.754 97.1352 206.026 97.4862 205.257 97.6396C205.549 96.0651 205.613 94.3687 205.089 92.8675C204.585 91.423 203.51 90.4518 202.158 89.9782C200.77 89.4921 199.293 89.5401 197.875 89.9718C197.52 90.08 197.166 90.197 196.821 90.3407C196.532 90.461 196.226 90.6144 195.914 90.6238C195.566 90.6344 195.44 90.409 195.273 90.1228C195.078 89.7873 194.843 89.4791 194.586 89.1959C193.451 87.9441 191.782 87.1854 190.116 87.4596C189.349 87.586 188.563 87.9055 187.951 88.4415C187.405 88.9192 186.916 89.7533 186.241 90.0264C185.955 90.1424 185.822 89.8848 185.625 89.6745C185.33 89.3585 185.056 89.0203 184.755 88.7102C184.333 88.2746 183.853 87.9154 183.31 87.6683C182.517 87.3067 181.357 87.1183 180.898 88.1607C180.725 88.5522 180.705 89.0043 180.65 89.4229C180.574 89.9977 180.501 90.5727 180.435 91.1486C180.385 91.5859 180.348 92.0105 180.344 92.4489C180.341 92.6826 180.392 93.1294 180.249 93.3351C180.072 93.5922 179.548 93.3193 179.308 93.2808C178.835 93.2049 178.347 93.1916 177.872 93.3041C177.504 93.3913 177.104 93.5482 176.884 93.905C176.748 94.1241 176.722 94.3721 176.714 94.6241C176.704 94.9266 176.616 95.0703 176.519 95.3578C175.952 94.9194 173.907 93.7862 173.403 94.8604C173.235 95.2181 173.357 95.6855 173.451 96.0351C173.617 96.6482 173.88 97.2311 174.155 97.792C174.73 98.9623 175.483 100.024 176.333 100.974C175.054 101.257 174.436 102.734 175.266 103.857C175.632 104.353 176.217 104.565 176.788 104.654C176.997 104.687 177.312 104.668 177.467 104.737C177.551 104.774 177.63 104.867 177.75 104.9C178.537 105.117 179.478 105.108 180.294 105.089C181.749 105.055 183.2 104.664 184.479 103.878C184.807 103.677 185.065 103.575 185.436 103.654C185.76 103.723 186.062 103.877 186.385 103.951C187.241 104.148 188.102 103.885 188.957 103.767C188.787 104.856 188.853 106.107 189.098 107.167C189.297 108.031 190.025 108.299 190.75 108.518C193.066 109.22 195.487 109.453 197.851 109.936C195.457 109.989 193.048 109.722 190.656 109.871C189.574 109.938 190.217 110.788 190.558 111.356C191.12 112.292 191.459 113.378 191.622 114.484C193.038 113.251 195.213 112.691 196.875 113.495C198.712 114.384 199.545 117.281 197.924 118.914C196.983 119.861 195.598 120.02 194.422 120.27C195.087 121.318 195.028 122.654 195.314 123.848C195.456 124.436 195.684 125.116 196.205 125.417C196.398 125.528 196.64 125.583 196.769 125.785C196.929 126.036 196.93 126.279 197.152 126.511C198.038 127.437 199.66 127.709 200.764 126.959C201.762 126.28 201.819 124.898 201.303 123.899C202.495 123.664 204.617 123.482 204.527 121.681C206.941 122.006 213.507 119.317 210.883 115.846C212.839 115.21 214.942 113.115 214.249 110.75C213.715 108.929 211.846 107.785 210.208 107.362Z" fill="black"/>
<path fill-rule="evenodd" clip-rule="evenodd" d="M180.77 140.655C184.803 179.903 162.956 191.904 169.388 207.23C174.7 219.886 215.916 230.402 221.727 217.038C224.08 211.628 224.808 205.27 224.361 198.465C224.917 204.495 224.062 208.34 225.419 212.017C227.759 218.361 231.469 219.544 231.687 222.047L241.065 219.84C240.154 216.493 242.151 214.186 241.717 206.351C239.139 159.9 221.727 142.923 201.688 134.268L201.167 130.965C200.954 129.615 199.686 128.693 198.336 128.906L181.832 131.512C180.482 131.725 179.56 132.993 179.773 134.343L180.77 140.655Z" fill="#FF871F"/>
<path d="M221.272 180.146L224.226 198.852C225.407 206.334 222.99 221.376 216.781 221.376L221.272 180.146Z" fill="#E15825"/>
<path d="M188.977 137.2L201.537 134.285V132.49L188.977 137.2Z" fill="#E15825"/>
</g>
<path d="M33.852 110.268C42.2353 110.268 49.0312 116.676 49.0312 124.582H18.6727C18.6727 116.676 25.4687 110.268 33.852 110.268Z" fill="#E5E4F8"/>
<circle cx="35.9996" cy="125.447" r="15.1793" fill="#FF7171"/>
<path d="M36.0836 117.76C31.8847 117.76 28.4799 121.202 28.4799 125.448H25.9453L29.3247 128.865L32.7042 125.448H30.1696C30.1696 122.142 32.814 119.468 36.0836 119.468C39.3532 119.468 41.9976 122.142 41.9976 125.448C41.9976 128.754 39.3532 131.428 36.0836 131.428C34.8079 131.428 33.6251 131.009 32.6535 130.317L31.4538 131.547C32.738 132.538 34.3432 133.136 36.0836 133.136C40.2825 133.136 43.6873 129.694 43.6873 125.448C43.6873 121.202 40.2825 117.76 36.0836 117.76Z" fill="white"/>
</svg>
