<svg width="91" height="40" viewBox="0 0 91 40" fill="none" xmlns="http://www.w3.org/2000/svg">
<path d="M3.20312 37.1376V30.1414C4.08081 30.1414 5.03067 30.1314 5.90813 30.1414C7.31686 30.1414 8.33493 31.1199 8.33493 32.4672C8.33493 33.8149 7.31686 34.7711 5.90813 34.7711H3.70227V37.1373L3.20312 37.1376ZM5.90813 34.3024C6.98557 34.3024 7.83462 33.5644 7.83462 32.4562C7.83462 31.3495 7.01747 30.6 5.90813 30.6H3.70227V34.3022H5.90813V34.3024Z" fill="#6D6E71"/>
<path d="M10.6987 37.2178C9.85963 37.2178 8.99219 36.7799 8.99219 35.862C8.99219 34.8148 9.91015 34.3038 10.8786 34.3038C11.4763 34.3038 12.0874 34.4248 12.6464 34.6635V33.8253C12.6464 32.8883 11.7866 32.6762 11.019 32.6762C10.4603 32.6762 9.88082 32.8063 9.47177 33.0478L9.36142 32.6476C9.80958 32.3971 10.45 32.2483 11.0798 32.2483C12.1179 32.2483 13.0961 32.6375 13.0961 33.8344V36.0312C13.0961 36.6104 13.0642 36.9396 13.7031 36.8593L13.7231 37.1885C12.9043 37.3182 12.6859 37.0288 12.7146 36.2717C12.336 36.9701 11.497 37.2178 10.6987 37.2178ZM12.6461 35.0737C12.0958 34.7931 11.507 34.6835 10.938 34.6939C10.2193 34.6939 9.46106 35.035 9.46106 35.8221C9.46106 36.5601 10.1083 36.8097 10.7774 36.8097C11.5575 36.8097 12.4359 36.4614 12.6459 35.6319L12.6461 35.0737Z" fill="#6D6E71"/>
<path d="M16.873 32.2587C17.3421 32.2669 17.7623 32.3966 18.0827 32.6271L17.9111 33.0473C17.6026 32.8163 17.2043 32.7162 16.8125 32.7162C16.0954 32.7162 15.4054 33.2067 15.4054 34.0258V37.1382H14.927V33.4356C14.927 32.9667 14.916 32.6671 14.3075 32.7481L14.2891 32.3174C15.0557 32.1882 15.3667 32.4787 15.3667 33.0373C15.6852 32.4678 16.3157 32.2278 16.873 32.2587Z" fill="#6D6E71"/>
<path d="M20.0299 32.3285H21.8961V32.7378H20.0299V35.3327C20.0299 36.3293 20.341 36.7414 20.9663 36.7505C21.2689 36.7505 21.6363 36.6709 22.0642 36.5205L22.1366 36.9297C21.6868 37.0885 21.2766 37.1602 20.9379 37.1602C20.0386 37.1602 19.552 36.6106 19.552 35.3427V32.7378L18.4531 32.7073V32.3285H19.552L19.5913 30.8616H20.0302L20.0299 32.3285Z" fill="#6D6E71"/>
<path d="M27.915 37.2178C26.6476 37.2178 25.3906 36.3807 25.3906 34.7238C25.3906 33.0559 26.6583 32.2483 27.9252 32.2483C29.1917 32.2483 30.4409 33.0673 30.4409 34.7238C30.4409 36.3809 29.1733 37.2178 27.915 37.2178ZM27.915 36.7909C28.933 36.7909 29.9628 36.0924 29.9628 34.7238C29.9628 33.3569 28.9431 32.6981 27.9252 32.6881C26.8971 32.6762 25.87 33.3469 25.87 34.7238C25.87 36.0924 26.8888 36.7909 27.915 36.7909Z" fill="#6D6E71"/>
<path d="M32.1829 32.7479H31.0547V32.3277H32.1829V31.4593C32.1829 29.7337 33.5411 29.4932 34.8271 30.041L34.7279 30.4303C33.7394 30.0024 32.6627 30.0629 32.6627 31.4702V32.3279H34.5196V32.7481H32.6627V37.1382H32.1826V32.7479H32.1829Z" fill="#6D6E71"/>
<path d="M36.8906 30.6114V30.1506H41.9794V30.6114H39.6839V37.1382H39.1854V30.6114H36.8906Z" fill="#6D6E71"/>
<path d="M44.2407 32.2587C44.7098 32.2669 45.1298 32.3966 45.4485 32.6271L45.2792 33.0473C44.9701 32.8163 44.5708 32.7162 44.1815 32.7162C43.4628 32.7162 42.7744 33.2067 42.7744 34.0258V37.1382H42.2951V33.4356C42.2951 32.9667 42.2851 32.6671 41.6765 32.7481L41.6562 32.3174C42.4245 32.1882 42.7339 32.4787 42.7339 33.0373C43.0529 32.4678 43.6817 32.2278 44.2407 32.2587Z" fill="#6D6E71"/>
<path d="M47.6203 37.2178C46.7813 37.2178 45.9141 36.7799 45.9141 35.862C45.9141 34.8148 46.8309 34.3038 47.7996 34.3038C48.3979 34.3038 49.0058 34.4248 49.5657 34.6635V33.8253C49.5657 32.8883 48.7066 32.6762 47.939 32.6762C47.3803 32.6762 46.8001 32.8063 46.3918 33.0478L46.2824 32.6476C46.7312 32.3971 47.37 32.2483 47.9989 32.2483C49.0379 32.2483 50.0162 32.6375 50.0162 33.8344V36.0312C50.0162 36.6104 49.9859 36.9396 50.6238 36.8593L50.6431 37.1885C49.8262 37.3182 49.6059 37.0288 49.6346 36.2717C49.2579 36.9701 48.4189 37.2178 47.6203 37.2178ZM49.5657 35.0737C49.016 34.7931 48.4291 34.6835 47.8592 34.6939C47.1396 34.6939 46.3813 35.035 46.3813 35.8221C46.3813 36.5601 47.0304 36.8097 47.6995 36.8097C48.4771 36.8097 49.3552 36.4614 49.5657 35.6319V35.0737Z" fill="#6D6E71"/>
<path d="M55.5052 37.137V34.2127C55.5052 33.2543 54.8664 32.6962 53.9384 32.6962C52.9895 32.6962 52.3011 33.2945 52.3011 34.293V37.1368H51.8226V33.5746C51.8226 32.8042 51.7411 32.6457 51.2115 32.7248L51.2031 32.307C51.9311 32.1968 52.2708 32.3556 52.2708 33.125C52.7012 32.5062 53.2896 32.2357 54.0478 32.2467C55.2633 32.2467 55.9846 33.0543 55.9846 34.2127V37.137H55.5052Z" fill="#6D6E71"/>
<path d="M57.6396 35.8012C57.722 36.5005 58.5103 36.8202 59.2888 36.8202C60.0773 36.8202 60.8866 36.531 60.8866 35.8417C60.8866 34.9524 59.9376 34.9524 59.2988 34.8732C58.3389 34.764 57.3134 34.5945 57.3134 33.6051C57.3134 32.608 58.2707 32.2483 59.2602 32.2483C60.2571 32.2483 61.2046 32.6585 61.2046 33.515H60.7648C60.7648 32.9167 60.0168 32.6473 59.2669 32.6473C58.5389 32.6473 57.7008 32.9165 57.7504 33.5953C57.7504 34.3352 58.7994 34.3934 59.3566 34.4737C60.3653 34.6125 61.3748 34.7033 61.3438 35.8415C61.3438 36.8013 60.3653 37.2174 59.2776 37.2174C58.2596 37.2174 57.2813 36.82 57.1719 35.801H57.6396V35.8012Z" fill="#6D6E71"/>
<path d="M62.6406 34.7437V30.1506H63.1414V34.7332C63.1414 36.0204 64.0091 36.7498 65.2674 36.7498C66.5139 36.7498 67.372 36.0204 67.372 34.7332V30.1506H67.8614V34.7437C67.8614 36.3003 66.7939 37.2173 65.2674 37.2173C63.7309 37.2173 62.6406 36.3003 62.6406 34.7437Z" fill="#6D6E71"/>
<path d="M73.3494 37.137V34.2127C73.3494 33.2543 72.7099 32.6962 71.7819 32.6962C70.8337 32.6962 70.1462 33.2945 70.1462 34.293V37.1368H69.6655V33.5746C69.6655 32.8042 69.5872 32.6457 69.0569 32.7248L69.0469 32.307C69.7765 32.1968 70.1152 32.3556 70.1152 33.125C70.5441 32.5062 71.1331 32.2357 71.8913 32.2467C73.1101 32.2467 73.8281 33.0543 73.8281 34.2127V37.137H73.3494Z" fill="#6D6E71"/>
<path d="M75.6678 30.3014C75.8282 30.3123 75.9881 30.4232 75.9881 30.6415C75.9881 30.862 75.8384 30.9703 75.6771 30.9821C75.5088 30.9907 75.3281 30.8711 75.3281 30.6415C75.3281 30.4122 75.4978 30.2935 75.6678 30.3014ZM75.8871 37.1392H75.4196V32.3289H75.8871V37.1392Z" fill="#6D6E71"/>
<path d="M79.7457 37.2178C78.4745 37.2178 77.2188 36.3807 77.2188 34.7238C77.2188 33.0559 78.4855 32.2483 79.7531 32.2483C81.0215 32.2483 82.2691 33.0673 82.2691 34.7238C82.2691 36.3809 80.9998 37.2178 79.7457 37.2178ZM79.7457 36.7909C80.76 36.7909 81.789 36.0924 81.789 34.7238C81.789 33.3569 80.771 32.6981 79.7531 32.6881C78.726 32.6762 77.6979 33.3469 77.6979 34.7238C77.6979 36.0924 78.715 36.7909 79.7457 36.7909Z" fill="#6D6E71"/>
<path d="M87.3873 37.137V34.2127C87.3873 33.2543 86.7492 32.6962 85.8212 32.6962C84.8713 32.6962 84.1836 33.2945 84.1836 34.293V37.1368H83.7045V33.5746C83.7045 32.8042 83.6237 32.6457 83.0943 32.7248L83.0859 32.307C83.8139 32.1968 84.1534 32.3556 84.1534 33.125C84.5822 32.5062 85.1705 32.2357 85.9304 32.2467C87.1478 32.2467 87.8655 33.0543 87.8655 34.2127V37.137H87.3873Z" fill="#6D6E71"/>
<path d="M15.018 2.76392C19.6124 2.76392 24.3743 5.31201 25.6152 10.6114H21.8602C20.685 7.69574 18.0708 6.35173 14.9851 6.31844C10.1895 6.31844 7.00026 9.80569 7.00026 14.8048C7.00026 19.4645 10.1895 23.1852 14.9851 23.1852C18.2053 23.1852 20.9204 21.6105 21.9594 18.4909H25.7505C24.5762 24.2275 19.747 26.7423 14.9851 26.7423C8.61269 26.7423 3.07812 22.3494 3.07812 14.8048C3.07813 7.2236 8.61269 2.76392 15.018 2.76392Z" fill="#00A2D1"/>
<path d="M38.0218 23.3561V26.5072H26.6875V23.3561H30.4103V6.15174H26.9885V3.02954H37.7208V6.15174H34.2999V23.3561H38.0218Z" fill="#00A2D1"/>
<path d="M54.6842 14.1653C57.1345 15.0039 58.4743 16.949 58.4743 19.5977C58.4743 23.7913 55.5903 26.5068 51.0286 26.5068H40.5312V3.03149H50.0559C54.3152 3.03149 57.4322 5.21152 57.4322 9.63884C57.4322 11.6163 56.5294 13.2593 54.6842 14.1653ZM44.4224 6.41723V12.8905H49.788C52.0355 12.8905 53.5772 12.0188 53.6126 9.73709C53.6126 7.42343 52.0683 6.41723 49.788 6.41723H44.4224ZM44.4224 16.0744V23.085H50.7965C52.9744 23.085 54.5154 21.8459 54.6178 19.5977C54.6178 18.4244 54.2153 17.484 53.4107 16.8163C52.503 16.1442 51.4337 16.0744 50.3576 16.0744H44.4224Z" fill="#00A2D1"/>
<path d="M71.3812 23.3561V26.5072H60.0469V23.3561H63.769V6.15174H60.3493V3.02954H71.0804V6.15174H67.6593V23.3561H71.3812Z" fill="#00A2D1"/>
<path d="M77.822 22.9848H87.9168V26.5072H73.8984V3.02954H77.822V22.9848Z" fill="#00A2D1"/>
</svg>
